<svg xmlns="http://www.w3.org/2000/svg" viewBox="0 0 900 520" role="img" aria-labelledby="title desc">
  <title id="title">AdAlchemy photo fallback</title>
  <desc id="desc">Abstract campaign portrait placeholder</desc>
  <defs>
    <linearGradient id="bg" x1="0" x2="1" y1="0" y2="1">
      <stop offset="0" stop-color="#202124"/>
      <stop offset="0.45" stop-color="#111214"/>
      <stop offset="1" stop-color="#302613"/>
    </linearGradient>
    <radialGradient id="glow" cx="72%" cy="30%" r="55%">
      <stop offset="0" stop-color="#f5c84c" stop-opacity="0.5"/>
      <stop offset="0.55" stop-color="#f5c84c" stop-opacity="0.12"/>
      <stop offset="1" stop-color="#f5c84c" stop-opacity="0"/>
    </radialGradient>
  </defs>
  <rect width="900" height="520" fill="url(#bg)"/>
  <rect width="900" height="520" fill="url(#glow)"/>
  <circle cx="444" cy="198" r="84" fill="#d8b84f"/>
  <path d="M272 520c24-118 82-184 172-184s148 66 172 184H272Z" fill="#f1d064"/>
  <path d="M0 436c104-42 206-58 306-48 118 12 222 54 338 52 88-2 172-28 256-64v144H0Z" fill="#0d0e10" opacity="0.58"/>
  <g fill="none" stroke="#f5c84c" stroke-opacity="0.28" stroke-width="2">
    <path d="M72 110h154M674 92h118M124 348h108M652 346h172"/>
    <path d="M104 146h86M704 130h64M160 384h54M704 382h74"/>
  </g>
</svg>
